<?xml version="1.0" standalone="no"?>
<!DOCTYPE svg PUBLIC "-//W3C//DTD SVG 20010904//EN"
 "http://www.w3.org/TR/2001/REC-SVG-20010904/DTD/svg10.dtd">
<svg version="1.0" xmlns="http://www.w3.org/2000/svg"
 width="455.000000pt" height="208.000000pt" viewBox="0 0 455.000000 208.000000"
 preserveAspectRatio="xMidYMid meet">

<g transform="translate(0.000000,208.000000) scale(0.100000,-0.100000)"
fill="#000000" stroke="none">
<path d="M341 2064 c-160 -43 -297 -187 -331 -348 -7 -36 -10 -259 -8 -707 l3
-654 23 -58 c48 -117 152 -221 270 -269 l57 -23 1920 0 1920 0 57 23 c118 48
222 152 270 269 l23 58 3 654 c2 448 -1 671 -8 707 -25 119 -122 249 -229 308
-110 59 8 56 -2041 55 -1605 0 -1883 -2 -1929 -15z m3825 -15 c128 -23 257
-117 313 -228 48 -93 51 -135 51 -781 0 -658 -3 -692 -56 -790 -33 -60 -124
-149 -183 -179 -101 -52 -39 -51 -2016 -51 -1977 0 -1915 -1 -2016 51 -59 30
-150 119 -183 179 -53 98 -56 132 -56 786 0 389 4 621 11 660 32 176 173 319
346 353 72 13 3714 14 3789 0z"/>
<path d="M1250 1065 l0 -365 44 0 c24 0 46 5 48 10 2 7 17 5 43 -6 28 -11 60
-15 111 -12 63 3 78 7 111 34 76 62 105 128 104 245 0 85 -15 143 -50 191 -38
53 -75 72 -146 72 -59 1 -88 -9 -147 -48 l-28 -18 0 131 0 131 -45 0 -45 0 0
-365z m310 70 c43 -22 63 -85 59 -188 -4 -91 -17 -120 -71 -160 -32 -24 -133
-25 -177 -2 l-31 16 0 143 c0 124 2 145 18 159 49 44 148 60 202 32z"/>
<path d="M2290 1065 l0 -365 45 0 45 0 0 199 0 199 52 26 c62 31 135 35 167 9
32 -26 40 -80 41 -265 l0 -168 46 0 46 0 -4 203 c-4 223 -11 252 -67 299 -58
49 -157 46 -242 -8 l-39 -24 0 130 0 130 -45 0 -45 0 0 -365z"/>
<path d="M3500 1065 l0 -365 44 0 c24 0 46 5 48 10 2 7 16 5 40 -5 53 -22 150
-20 197 5 85 43 131 134 131 257 0 103 -15 155 -61 207 -67 76 -170 84 -270
21 l-39 -25 0 130 0 130 -45 0 -45 0 0 -365z m304 73 c14 -6 35 -31 47 -55 18
-38 21 -57 17 -134 -4 -95 -16 -122 -69 -162 -31 -22 -120 -25 -174 -6 l-35
13 0 152 0 152 52 26 c56 28 120 34 162 14z"/>
<path d="M460 1050 l0 -350 225 0 225 0 0 40 0 40 -175 0 -175 0 0 310 0 310
-50 0 -50 0 0 -350z"/>
<path d="M990 1355 l0 -45 50 0 50 0 0 45 0 45 -50 0 -50 0 0 -45z"/>
<path d="M990 960 l0 -260 45 0 45 0 0 260 0 260 -45 0 -45 0 0 -260z"/>
<path d="M2891 1013 c4 -188 6 -211 25 -243 33 -56 77 -80 148 -80 60 0 136
25 150 49 12 19 26 12 26 -14 0 -23 4 -25 45 -25 l45 0 0 260 0 260 -45 0 -45
0 -2 -197 -3 -198 -54 -27 c-88 -45 -161 -34 -186 27 -11 26 -15 80 -15 215
l0 180 -46 0 -46 0 3 -207z"/>
<path d="M1840 1005 l0 -45 145 0 145 0 0 45 0 45 -145 0 -145 0 0 -45z"/>
</g>
</svg>
